<svg xmlns="http://www.w3.org/2000/svg" xmlns:xlink="http://www.w3.org/1999/xlink" width="48" zoomAndPan="magnify" viewBox="0 0 36 36.000001" height="48" preserveAspectRatio="xMidYMid meet" version="1.0"><defs><clipPath id="fb4ffd32a9"><path d="M 0.488281 0 L 35.511719 0 L 35.511719 35.027344 L 0.488281 35.027344 Z M 0.488281 0 " clip-rule="nonzero"/></clipPath><clipPath id="893d43065b"><path d="M 17 3 L 30.957031 3 L 30.957031 35 L 17 35 Z M 17 3 " clip-rule="nonzero"/></clipPath><clipPath id="a418a6883d"><path d="M 4.730469 0 L 29 0 L 29 33 L 4.730469 33 Z M 4.730469 0 " clip-rule="nonzero"/></clipPath></defs><g clip-path="url(#fb4ffd32a9)"><path fill="#ffffff" d="M 0.488281 0 L 35.511719 0 L 35.511719 35.027344 L 0.488281 35.027344 Z M 0.488281 0 " fill-opacity="1" fill-rule="nonzero"/><path fill="#555555" d="M 0.488281 0 L 35.511719 0 L 35.511719 35.027344 L 0.488281 35.027344 Z M 0.488281 0 " fill-opacity="1" fill-rule="nonzero"/></g><g clip-path="url(#893d43065b)"><path fill="#000000" d="M 22.953125 25.207031 C 23.355469 25.207031 23.792969 25.15625 24.230469 25.046875 L 24.230469 17.664062 L 29.75 17.664062 L 29.75 11.222656 L 26.351562 11.222656 L 26.351562 14.789062 L 20.835938 14.789062 L 20.835938 22.9375 C 20.871094 24.976562 22.007812 25.207031 22.953125 25.207031 Z M 24.25 3.625 L 20.851562 3.625 L 20.851562 8.347656 L 24.25 8.347656 Z M 29.1875 27.320312 C 28.558594 27.675781 27.753906 27.941406 27 28.046875 L 27.558594 29.75 C 26.542969 31.101562 24.023438 32.042969 21.710938 32.078125 C 21.640625 32.078125 21.550781 32.078125 21.480469 32.078125 C 19.871094 32.078125 18.539062 31.792969 17.4375 31.3125 C 18.734375 33.320312 21.042969 34.953125 24.878906 34.953125 C 24.949219 34.953125 25.039062 34.953125 25.109375 34.953125 C 27.417969 34.917969 29.941406 33.976562 30.957031 32.625 Z M 29.1875 27.320312 " fill-opacity="0.2471" fill-rule="nonzero"/></g><g clip-path="url(#a418a6883d)"><path fill="#ffffff" d="M 20.449219 32.714844 C 23.671875 32.714844 26.859375 31.542969 27.925781 30.140625 L 28.136719 29.859375 L 26.125 23.859375 C 26.105469 23.804688 26.054688 23.769531 26 23.769531 L 21.515625 23.769531 C 21.464844 23.769531 21.394531 23.734375 21.394531 23.664062 C 21.34375 23.46875 21.308594 23.21875 21.308594 22.917969 L 21.308594 15.585938 C 21.308594 15.515625 21.359375 15.445312 21.449219 15.445312 L 26.703125 15.445312 C 26.769531 15.445312 26.839844 15.390625 26.839844 15.304688 L 26.839844 7.796875 C 26.839844 7.726562 26.789062 7.652344 26.703125 7.652344 L 21.480469 7.652344 C 21.414062 7.652344 21.34375 7.601562 21.34375 7.511719 L 21.34375 0.21875 C 21.34375 0.144531 21.289062 0.0742188 21.203125 0.0742188 L 12.042969 0.0742188 C 11.394531 0.0742188 10.625 0.570312 10.519531 1.476562 C 10.0625 5.257812 8.347656 7.53125 5.140625 8.613281 L 4.792969 8.738281 C 4.722656 8.753906 4.6875 8.808594 4.6875 8.859375 L 4.6875 15.304688 C 4.6875 15.375 4.738281 15.445312 4.828125 15.445312 L 8.101562 15.445312 C 8.101562 15.445312 8.101562 21.460938 8.101562 23.378906 C 8.101562 29.734375 12.429688 32.714844 20.449219 32.714844 Z M 26.578125 29.664062 C 25.582031 30.640625 23.515625 31.367188 21.535156 31.402344 C 21.464844 31.402344 21.394531 31.402344 21.308594 31.402344 C 14.792969 31.402344 13.058594 26.363281 13.058594 23.398438 L 13.058594 14.257812 C 13.058594 14.1875 13.003906 14.113281 12.917969 14.113281 L 9.765625 14.113281 C 9.695312 14.113281 9.625 14.0625 9.625 13.972656 L 9.625 9.820312 C 9.625 9.765625 9.660156 9.710938 9.714844 9.695312 C 13.074219 8.363281 14.949219 5.738281 15.441406 1.65625 C 15.476562 1.425781 15.648438 1.425781 15.648438 1.425781 L 19.855469 1.425781 C 19.921875 1.425781 19.992188 1.476562 19.992188 1.566406 L 19.992188 8.878906 C 19.992188 8.949219 20.046875 9.019531 20.132812 9.019531 L 25.371094 9.019531 C 25.441406 9.019531 25.511719 9.074219 25.511719 9.164062 L 25.511719 13.992188 C 25.511719 14.0625 25.457031 14.132812 25.371094 14.132812 L 20.117188 14.132812 C 20.046875 14.132812 19.976562 14.1875 19.976562 14.273438 L 19.976562 22.953125 C 20.011719 24.90625 20.9375 25.898438 22.761719 25.898438 C 23.496094 25.898438 24.320312 25.722656 25.089844 25.4375 C 25.160156 25.402344 25.246094 25.457031 25.265625 25.527344 L 26.597656 29.539062 C 26.632812 29.554688 26.632812 29.628906 26.578125 29.664062 Z M 26.578125 29.664062 " fill-opacity="1" fill-rule="nonzero"/></g><path fill="#000000" d="M 8.101562 15.445312 L 11.746094 15.445312 L 11.746094 17.574219 L 8.101562 17.574219 Z M 8.101562 15.445312 " fill-opacity="0.2471" fill-rule="nonzero"/></svg>