<svg xmlns="http://www.w3.org/2000/svg" xmlns:xlink="http://www.w3.org/1999/xlink" width="48" zoomAndPan="magnify" viewBox="0 0 36 36.000001" height="48" preserveAspectRatio="xMidYMid meet" version="1.0"><defs><clipPath id="d0a215830b"><path d="M 0.488281 0 L 35.511719 0 L 35.511719 35.027344 L 0.488281 35.027344 Z M 0.488281 0 " clip-rule="nonzero"/></clipPath></defs><g clip-path="url(#d0a215830b)"><path fill="#ffffff" d="M 0.488281 0 L 35.511719 0 L 35.511719 35.027344 L 0.488281 35.027344 Z M 0.488281 0 " fill-opacity="1" fill-rule="nonzero"/><path fill="#555555" d="M 0.488281 0 L 35.511719 0 L 35.511719 35.027344 L 0.488281 35.027344 Z M 0.488281 0 " fill-opacity="1" fill-rule="nonzero"/><path fill="#fffc00" d="M 29.933594 0 C 33.015625 0 35.511719 2.5 35.511719 5.582031 L 35.511719 29.445312 C 35.511719 32.527344 33.015625 35.027344 29.933594 35.027344 L 6.066406 35.027344 C 2.984375 35.027344 0.488281 32.527344 0.488281 29.445312 L 0.488281 5.582031 C 0.488281 2.5 2.984375 0 6.066406 0 Z M 29.933594 0 " fill-opacity="1" fill-rule="nonzero"/></g><path fill="#ffffff" d="M 18.140625 29.5625 C 18.070312 29.5625 18 29.5625 17.953125 29.5625 C 17.90625 29.5625 17.859375 29.5625 17.835938 29.5625 C 16.320312 29.5625 15.339844 28.863281 14.402344 28.207031 C 13.75 27.742188 13.144531 27.320312 12.417969 27.203125 C 12.070312 27.132812 11.71875 27.109375 11.367188 27.109375 C 10.761719 27.109375 10.269531 27.203125 9.921875 27.273438 C 9.710938 27.320312 9.523438 27.34375 9.382812 27.34375 C 9.242188 27.34375 9.078125 27.320312 9.007812 27.085938 C 8.941406 26.878906 8.917969 26.691406 8.871094 26.503906 C 8.753906 26.011719 8.683594 25.710938 8.472656 25.6875 C 6.066406 25.3125 5.367188 24.800781 5.226562 24.449219 C 5.203125 24.402344 5.203125 24.355469 5.179688 24.285156 C 5.179688 24.144531 5.273438 24.027344 5.414062 24.003906 C 9.125 23.398438 10.785156 19.613281 10.855469 19.453125 C 10.855469 19.453125 10.855469 19.453125 10.855469 19.429688 C 11.089844 18.960938 11.132812 18.5625 10.996094 18.238281 C 10.738281 17.628906 9.921875 17.375 9.359375 17.210938 C 9.21875 17.164062 9.101562 17.117188 8.988281 17.09375 C 7.890625 16.648438 7.796875 16.207031 7.84375 15.996094 C 7.914062 15.597656 8.425781 15.34375 8.847656 15.34375 C 8.964844 15.34375 9.054688 15.363281 9.148438 15.410156 C 9.640625 15.644531 10.082031 15.761719 10.480469 15.761719 C 11.019531 15.761719 11.25 15.527344 11.273438 15.503906 C 11.25 15.25 11.25 14.992188 11.226562 14.710938 C 11.113281 12.960938 10.972656 10.789062 11.53125 9.527344 C 13.191406 5.792969 16.714844 5.511719 17.765625 5.511719 C 17.789062 5.511719 18.234375 5.511719 18.234375 5.511719 L 18.304688 5.511719 C 19.355469 5.511719 22.878906 5.792969 24.539062 9.527344 C 25.097656 10.765625 24.957031 12.960938 24.84375 14.710938 L 24.84375 14.78125 C 24.820312 15.015625 24.820312 15.273438 24.796875 15.480469 C 24.820312 15.503906 25.027344 15.714844 25.519531 15.738281 C 25.894531 15.714844 26.3125 15.597656 26.757812 15.386719 C 26.898438 15.320312 27.035156 15.320312 27.152344 15.320312 C 27.316406 15.320312 27.457031 15.34375 27.597656 15.410156 C 27.972656 15.550781 28.203125 15.808594 28.226562 16.066406 C 28.226562 16.324219 28.042969 16.71875 27.082031 17.09375 C 26.992188 17.140625 26.851562 17.164062 26.734375 17.210938 C 26.171875 17.375 25.355469 17.652344 25.097656 18.238281 C 24.957031 18.5625 25.003906 18.960938 25.238281 19.429688 C 25.238281 19.429688 25.238281 19.429688 25.238281 19.453125 C 25.308594 19.613281 26.96875 23.398438 30.679688 24.003906 C 30.820312 24.027344 30.914062 24.144531 30.914062 24.285156 C 30.914062 24.332031 30.890625 24.378906 30.867188 24.449219 C 30.703125 24.800781 30.027344 25.3125 27.621094 25.6875 C 27.433594 25.710938 27.339844 25.964844 27.222656 26.503906 C 27.175781 26.691406 27.128906 26.902344 27.082031 27.085938 C 27.035156 27.273438 26.921875 27.34375 26.734375 27.34375 L 26.710938 27.34375 C 26.59375 27.34375 26.40625 27.320312 26.171875 27.273438 C 25.777344 27.203125 25.308594 27.109375 24.726562 27.109375 C 24.375 27.109375 24.023438 27.132812 23.675781 27.203125 C 22.949219 27.320312 22.34375 27.765625 21.691406 28.207031 C 20.617188 28.863281 19.65625 29.5625 18.140625 29.5625 Z M 18.140625 29.5625 " fill-opacity="1" fill-rule="nonzero"/><path fill="#030303" d="M 18.210938 5.746094 C 19.191406 5.746094 22.601562 6 24.1875 9.597656 C 24.726562 10.789062 24.585938 12.914062 24.46875 14.640625 C 24.445312 14.921875 24.445312 15.179688 24.421875 15.433594 L 24.421875 15.550781 L 24.492188 15.621094 C 24.515625 15.644531 24.796875 15.949219 25.402344 15.972656 C 25.800781 15.949219 26.265625 15.832031 26.757812 15.597656 C 26.828125 15.574219 26.921875 15.550781 27.035156 15.550781 C 27.152344 15.550781 27.269531 15.574219 27.386719 15.621094 L 27.410156 15.621094 C 27.667969 15.714844 27.855469 15.878906 27.855469 16.042969 C 27.855469 16.136719 27.785156 16.4375 26.875 16.8125 C 26.78125 16.859375 26.664062 16.882812 26.523438 16.929688 C 25.917969 17.117188 25.027344 17.398438 24.726562 18.121094 C 24.5625 18.519531 24.609375 19.007812 24.867188 19.523438 C 24.980469 19.777344 26.6875 23.609375 30.515625 24.238281 C 30.515625 24.261719 30.515625 24.285156 30.492188 24.308594 C 30.421875 24.472656 30.027344 24.984375 27.457031 25.382812 C 27.058594 25.453125 26.96875 25.898438 26.851562 26.410156 C 26.804688 26.597656 26.757812 26.785156 26.710938 26.996094 C 26.6875 27.0625 26.6875 27.0625 26.617188 27.0625 C 26.617188 27.0625 26.59375 27.0625 26.59375 27.0625 C 26.476562 27.0625 26.3125 27.039062 26.101562 26.996094 C 25.730469 26.925781 25.238281 26.832031 24.609375 26.832031 C 24.257812 26.832031 23.882812 26.855469 23.511719 26.925781 C 22.71875 27.0625 22.085938 27.507812 21.410156 27.976562 C 20.5 28.628906 19.566406 29.28125 18.117188 29.28125 C 18.046875 29.28125 18 29.28125 17.929688 29.28125 L 17.882812 29.28125 C 17.835938 29.28125 17.8125 29.28125 17.765625 29.28125 C 16.34375 29.28125 15.382812 28.628906 14.472656 27.976562 C 13.796875 27.507812 13.167969 27.039062 12.371094 26.925781 C 12 26.855469 11.648438 26.832031 11.273438 26.832031 C 10.644531 26.832031 10.128906 26.925781 9.78125 26.996094 C 9.570312 27.039062 9.40625 27.0625 9.289062 27.0625 C 9.195312 27.0625 9.195312 27.0625 9.171875 26.996094 C 9.125 26.808594 9.078125 26.597656 9.03125 26.410156 C 8.917969 25.898438 8.824219 25.429688 8.425781 25.382812 C 5.855469 24.984375 5.4375 24.449219 5.390625 24.308594 C 5.390625 24.285156 5.367188 24.261719 5.367188 24.238281 C 9.195312 23.609375 10.902344 19.777344 11.019531 19.523438 C 11.273438 18.984375 11.320312 18.519531 11.15625 18.121094 C 10.855469 17.398438 9.945312 17.117188 9.359375 16.929688 C 9.21875 16.882812 9.101562 16.859375 9.007812 16.8125 C 8.238281 16.507812 8.003906 16.207031 8.027344 16.019531 C 8.074219 15.808594 8.449219 15.574219 8.777344 15.574219 C 8.847656 15.574219 8.917969 15.597656 8.964844 15.597656 C 9.5 15.855469 9.96875 15.972656 10.386719 15.972656 C 11.066406 15.972656 11.34375 15.667969 11.390625 15.621094 L 11.460938 15.550781 L 11.460938 15.433594 C 11.4375 15.179688 11.4375 14.921875 11.414062 14.640625 C 11.296875 12.914062 11.179688 10.789062 11.695312 9.597656 C 13.328125 6.023438 16.691406 5.746094 17.695312 5.746094 C 17.71875 5.746094 18.164062 5.746094 18.164062 5.746094 C 18.1875 5.746094 18.210938 5.746094 18.210938 5.746094 M 18.210938 5.207031 C 18.1875 5.207031 18.164062 5.207031 18.140625 5.207031 C 18.140625 5.207031 17.71875 5.207031 17.695312 5.207031 C 16.621094 5.207031 12.957031 5.511719 11.226562 9.386719 C 10.644531 10.695312 10.785156 12.914062 10.902344 14.6875 C 10.925781 14.898438 10.925781 15.109375 10.949219 15.320312 C 10.855469 15.363281 10.691406 15.433594 10.433594 15.433594 C 10.082031 15.433594 9.6875 15.320312 9.21875 15.109375 C 9.101562 15.0625 8.964844 15.015625 8.800781 15.015625 C 8.261719 15.015625 7.632812 15.363281 7.515625 15.902344 C 7.445312 16.277344 7.609375 16.835938 8.824219 17.304688 C 8.941406 17.351562 9.054688 17.398438 9.195312 17.445312 C 9.6875 17.605469 10.457031 17.839844 10.667969 18.332031 C 10.785156 18.585938 10.738281 18.914062 10.550781 19.289062 C 10.550781 19.289062 10.550781 19.3125 10.527344 19.3125 C 10.457031 19.476562 8.847656 23.117188 5.296875 23.703125 C 5.015625 23.75 4.828125 23.980469 4.851562 24.261719 C 4.851562 24.355469 4.875 24.425781 4.898438 24.496094 C 5.15625 25.125 6.300781 25.570312 8.355469 25.898438 C 8.425781 25.988281 8.496094 26.316406 8.542969 26.527344 C 8.589844 26.714844 8.636719 26.925781 8.683594 27.132812 C 8.753906 27.34375 8.917969 27.601562 9.3125 27.601562 C 9.476562 27.601562 9.6875 27.554688 9.898438 27.507812 C 10.246094 27.4375 10.714844 27.34375 11.296875 27.34375 C 11.625 27.34375 11.953125 27.367188 12.300781 27.4375 C 12.957031 27.554688 13.515625 27.953125 14.171875 28.394531 C 15.105469 29.050781 16.15625 29.796875 17.765625 29.796875 C 17.8125 29.796875 17.859375 29.796875 17.90625 29.796875 C 17.953125 29.796875 18.023438 29.796875 18.09375 29.796875 C 19.703125 29.796875 20.753906 29.050781 21.691406 28.394531 C 22.34375 27.929688 22.902344 27.53125 23.558594 27.414062 C 23.90625 27.367188 24.234375 27.320312 24.5625 27.320312 C 25.121094 27.320312 25.566406 27.390625 25.960938 27.460938 C 26.21875 27.507812 26.40625 27.53125 26.546875 27.53125 L 26.59375 27.53125 C 26.898438 27.53125 27.105469 27.367188 27.199219 27.085938 C 27.269531 26.878906 27.316406 26.691406 27.339844 26.480469 C 27.386719 26.269531 27.457031 25.941406 27.527344 25.875 C 29.582031 25.546875 30.703125 25.101562 30.984375 24.472656 C 31.007812 24.402344 31.03125 24.308594 31.054688 24.214844 C 31.078125 23.933594 30.867188 23.703125 30.609375 23.65625 C 27.035156 23.070312 25.449219 19.40625 25.378906 19.265625 C 25.378906 19.265625 25.378906 19.242188 25.355469 19.242188 C 25.167969 18.84375 25.121094 18.539062 25.238281 18.285156 C 25.449219 17.792969 26.195312 17.558594 26.710938 17.398438 C 26.851562 17.351562 26.992188 17.304688 27.082031 17.257812 C 27.972656 16.90625 28.414062 16.484375 28.414062 15.972656 C 28.414062 15.574219 28.109375 15.226562 27.621094 15.0625 C 27.457031 14.992188 27.269531 14.96875 27.082031 14.96875 C 26.945312 14.96875 26.757812 14.992188 26.59375 15.0625 C 26.171875 15.25 25.800781 15.363281 25.472656 15.386719 C 25.261719 15.386719 25.121094 15.320312 25.027344 15.273438 C 25.027344 15.085938 25.050781 14.898438 25.050781 14.710938 L 25.050781 14.640625 C 25.167969 12.867188 25.308594 10.648438 24.726562 9.339844 C 22.972656 5.511719 19.308594 5.207031 18.210938 5.207031 Z M 18.210938 5.207031 " fill-opacity="1" fill-rule="nonzero"/></svg>