<svg xmlns="http://www.w3.org/2000/svg" xmlns:xlink="http://www.w3.org/1999/xlink" width="48" zoomAndPan="magnify" viewBox="0 0 36 36.000001" height="48" preserveAspectRatio="xMidYMid meet" version="1.0"><defs><clipPath id="42ccedc50d"><path d="M 0.488281 0 L 35.511719 0 L 35.511719 35.027344 L 0.488281 35.027344 Z M 0.488281 0 " clip-rule="nonzero"/></clipPath></defs><g clip-path="url(#42ccedc50d)"><path fill="#ffffff" d="M 0.488281 0 L 35.511719 0 L 35.511719 119.675781 L 0.488281 119.675781 Z M 0.488281 0 " fill-opacity="1" fill-rule="nonzero"/><path fill="#ffffff" d="M 0.488281 0 L 35.511719 0 L 35.511719 35.027344 L 0.488281 35.027344 Z M 0.488281 0 " fill-opacity="1" fill-rule="nonzero"/><path fill="#555555" d="M 0.488281 0 L 35.511719 0 L 35.511719 35.027344 L 0.488281 35.027344 Z M 0.488281 0 " fill-opacity="1" fill-rule="nonzero"/><path fill="#25d366" d="M 30.867188 35.027344 L 5.132812 35.027344 C 2.566406 35.027344 0.488281 32.949219 0.488281 30.378906 L 0.488281 4.648438 C 0.488281 2.078125 2.566406 0 5.132812 0 L 30.890625 0 C 33.457031 0 35.535156 2.078125 35.535156 4.648438 L 35.535156 30.402344 C 35.511719 32.949219 33.433594 35.027344 30.867188 35.027344 Z M 30.867188 35.027344 " fill-opacity="1" fill-rule="nonzero"/></g><path fill="#ffffff" d="M 26.40625 8.640625 C 24.210938 6.445312 21.292969 5.230469 18.1875 5.230469 C 11.765625 5.230469 6.558594 10.4375 6.558594 16.859375 C 6.558594 18.914062 7.09375 20.921875 8.121094 22.675781 L 6.464844 28.699219 L 12.628906 27.085938 C 14.332031 28.023438 16.25 28.511719 18.1875 28.511719 C 24.609375 28.511719 29.816406 23.28125 29.816406 16.882812 C 29.792969 13.753906 28.601562 10.835938 26.40625 8.640625 Z M 18.164062 26.550781 C 16.433594 26.550781 14.730469 26.082031 13.234375 25.195312 L 12.886719 24.984375 L 9.21875 25.941406 L 10.199219 22.371094 L 9.96875 21.996094 C 9.007812 20.457031 8.496094 18.679688 8.496094 16.859375 C 8.496094 11.535156 12.839844 7.191406 18.164062 7.191406 C 20.753906 7.191406 23.183594 8.195312 25.003906 10.019531 C 26.828125 11.839844 27.832031 14.269531 27.832031 16.859375 C 27.832031 22.207031 23.488281 26.550781 18.164062 26.550781 Z M 23.464844 19.289062 C 23.183594 19.148438 21.734375 18.449219 21.480469 18.332031 C 21.222656 18.238281 21.011719 18.191406 20.824219 18.472656 C 20.640625 18.75 20.078125 19.429688 19.914062 19.613281 C 19.75 19.800781 19.566406 19.824219 19.285156 19.683594 C 19.003906 19.546875 18.046875 19.242188 16.949219 18.238281 C 16.085938 17.464844 15.5 16.507812 15.339844 16.230469 C 15.175781 15.949219 15.316406 15.785156 15.453125 15.644531 C 15.59375 15.503906 15.734375 15.296875 15.898438 15.132812 C 16.039062 14.96875 16.085938 14.851562 16.179688 14.640625 C 16.273438 14.453125 16.226562 14.269531 16.15625 14.128906 C 16.085938 13.988281 15.5 12.539062 15.269531 11.980469 C 15.035156 11.417969 14.800781 11.488281 14.613281 11.488281 C 14.449219 11.488281 14.242188 11.488281 14.054688 11.488281 C 13.867188 11.488281 13.539062 11.558594 13.28125 11.863281 C 13.027344 12.144531 12.253906 12.867188 12.253906 14.289062 C 12.253906 15.714844 13.304688 17.09375 13.445312 17.304688 C 13.585938 17.488281 15.5 20.433594 18.421875 21.695312 C 19.121094 21.996094 19.65625 22.160156 20.078125 22.300781 C 20.777344 22.511719 21.410156 22.488281 21.898438 22.417969 C 22.460938 22.324219 23.628906 21.714844 23.859375 21.039062 C 24.09375 20.363281 24.09375 19.777344 24.023438 19.660156 C 23.953125 19.523438 23.769531 19.453125 23.464844 19.289062 Z M 23.464844 19.289062 " fill-opacity="1" fill-rule="evenodd"/></svg>